<svg id="visual" viewBox="0 0 1920 1300" width="1920" height="1300" xmlns="http://www.w3.org/2000/svg" xmlns:xlink="http://www.w3.org/1999/xlink" version="1.1"><rect x="0" y="0" width="1920" height="1300" fill="#001220"></rect><defs><linearGradient id="grad1_0" x1="32.3%" y1="0%" x2="100%" y2="100%"><stop offset="20.46153846153846%" stop-color="#001220" stop-opacity="1"></stop><stop offset="79.53846153846155%" stop-color="#001220" stop-opacity="1"></stop></linearGradient></defs><defs><linearGradient id="grad2_0" x1="0%" y1="0%" x2="67.7%" y2="100%"><stop offset="20.46153846153846%" stop-color="#001220" stop-opacity="1"></stop><stop offset="79.53846153846155%" stop-color="#001220" stop-opacity="1"></stop></linearGradient></defs><g transform="translate(1920, 0)"><path d="M0 753.6C-72.9 689.5 -145.9 625.4 -249.1 601.4C-352.4 577.5 -485.9 593.6 -532.9 532.9C-579.8 472.2 -540.3 334.7 -562.6 233.1C-585 131.4 -669.3 65.7 -753.6 0L0 0Z" fill="#19BBB6"></path></g><g transform="translate(0, 1300)"><path d="M0 -753.6C92.9 -715.7 185.8 -677.8 261 -630.1C336.1 -582.4 393.5 -525 470.9 -470.9C548.3 -416.9 645.8 -366.3 696.2 -288.4C746.7 -210.5 750.1 -105.2 753.6 0L0 0Z" fill="#19BBB6"></path></g></svg>